<svg
  class="image"
  width="280"
  height="270"
  viewBox="0 0 280 270"
  fill="none"
  xmlns="http://www.w3.org/2000/svg"
>
  <g clip-path="url(#clip0_2_383)">
    <path
      fill-rule="evenodd"
      clip-rule="evenodd"
      d="M164.272 242.937C128.591 243.196 87.9264 253.479 62.2887 228.758C36.5015 203.895 40.1945 162.7 44.2131 127.176C47.7083 96.2798 61.4527 68.7166 82.944 46.168C105.135 22.8851 132.173 4.12277 164.272 1.211C199.4 -1.97571 238.548 3.59652 261.896 29.9342C284.518 55.453 275.439 93.1366 275.935 127.176C276.444 162.075 289.052 202.116 264.775 227.285C240.352 252.603 199.52 242.681 164.272 242.937Z"
      fill="#1F3847"
    />
    <path
      d="M76.4089 264.308C56.2404 264.803 54.689 244.404 71.1341 194.645C76.4089 178.635 71.9408 169.116 60.2741 171.588C52.6412 173.195 45.6287 185.372 39.0507 208.49C33.4036 228.456 27.322 234.02 17.455 228.456C7.21557 222.646 6.34685 210.963 14.4142 186.052C15.6553 182.282 17.2066 177.399 17.8892 175.174C28.1287 142.598 57.1713 119.108 88.4479 118.058C103.652 117.564 87.6411 114.411 72.6234 116.76C44.5738 121.21 17.0826 147.543 7.58798 179.252C-4.76131 220.606 -1.03798 233.463 23.3504 233.524C36.9408 233.586 38.3681 231.98 47.7387 205.648C58.8468 174.494 66.9762 164.789 65.549 184.445C65.1766 189.143 50.0348 228.024 50.0348 243.91C50.0348 261.898 64.1216 273.272 80.3805 268.388C87.2067 266.286 85.0348 264.061 76.4089 264.308Z"
      fill="#DDF0A7"
    />
    <path
      d="M153.98 144.391C139.893 128.196 111.098 113.73 100.921 117.749C96.7016 119.417 97.3841 121.396 102.225 121.396C111.657 121.396 129.654 130.853 140.265 141.361C169.122 169.98 170.611 222.089 143.679 256.087C138.342 262.824 124.875 267.955 120.718 252.502C117.863 241.746 120.655 232.845 125.868 220.544C135.052 199.033 134.122 189.39 122.704 189.39C114.016 189.39 111.161 193.346 100.921 219.678C92.6679 240.881 86.5862 255.469 84.9107 258.002C81.0632 263.752 87.9515 263.629 92.2954 257.818C94.9639 254.233 101.666 240.2 103.59 234.205C107.81 221.162 111.595 206.45 118.608 197.178C122.207 192.357 125.062 192.172 124.193 198.848C123.634 202.927 121.462 208.923 117.243 218.381C104.211 247.371 108.058 265.914 127.42 267.151C142.375 268.078 152.367 261.34 160.62 242.859C178.244 203.298 173.218 166.52 153.98 144.391Z"
      fill="#DDF0A7"
    />
  </g>
  <defs>
    <clipPath id="clip0_2_383">
      <rect width="280" height="270" fill="white" />
    </clipPath>
  </defs>
</svg>