<svg
  class="buildingsvg4image"
  width="180"
  height="206"
  viewBox="0 0 180 206"
  fill="none"
  xmlns="http://www.w3.org/2000/svg"
>
  <g clip-path="url(#clip0_2_215)">
    <path
      d="M76.989 74.0085C81.3538 70.6365 105.698 54.1443 110.125 51.6306C113.874 49.546 114.735 48.7496 115.534 46.6651C117.686 40.9631 121.005 22.3246 122.297 8.59129C122.973 1.78592 118.669 -1.89228 113.321 0.989271C112.153 1.60237 108.833 3.25772 105.944 4.66784C103.054 6.01665 94.6939 11.2893 87.3169 16.3167C70.78 27.6589 71.2718 22.0185 68.4439 50.3437C67.8292 56.9038 62.9726 84.8603 76.989 74.0085ZM79.5095 35.6902C79.5095 33.7283 81.5997 32.0119 94.8784 23.0607C101.456 18.5851 107.85 14.1704 109.018 13.1895C111.907 10.8597 112.03 10.9213 111.415 14.6612C108.157 34.4642 105.944 39.4305 103.792 45.255C90.1448 52.1829 74.7759 63.7085 74.2226 63.402C73.9767 63.0341 79.5095 40.7789 79.5095 35.6902Z"
      fill="#162E3C"
    />
    <path
      d="M71.3946 138.936C76.0053 138.936 105.882 112.266 108.71 110.243C114.551 106.074 121.805 73.0893 117.317 71.0048C115.472 70.1465 115.841 70.0852 111.415 71.1887C109.51 71.6792 101.579 75.2352 93.7717 79.159C76.0053 88.0489 77.8496 85.0447 75.7594 90.3173C70.2881 104.051 66.784 131.088 65.3701 133.356C63.9561 135.379 67.8291 138.936 71.3946 138.936ZM76.6815 118.704C79.0791 111.163 81.5996 100.617 83.3824 93.3828C105.821 83.2667 109.633 80.3846 109.633 81.6721C109.633 83.2048 107.235 86.4548 104.407 105.952C99.12 109.201 88.0545 115.698 81.1078 120.91C73.7922 126.366 74.2225 126.552 76.6815 118.704Z"
      fill="#162E3C"
    />
    <path
      d="M52.6447 97.7967C47.5423 89.1521 38.7514 98.2875 37.5219 99.2076C23.813 109.508 18.1571 116.067 10.903 122.383C7.15304 125.693 9.24327 124.773 3.58753 144.76C-2.68296 166.954 0.821141 171.675 18.649 158.248C29.7145 149.91 30.3292 150.033 42.5013 141.327C47.7267 137.648 47.1734 133.908 50.0013 123.853C53.3824 111.898 54.489 100.862 52.6447 97.7967ZM36.7841 133.541C36.1079 137.771 30.2063 137.403 19.0178 145.373C10.903 151.198 14.7761 148.99 16.8048 133.172L17.5425 127.41C38.444 110.795 43.239 104.848 43.239 107.055C43.239 107.055 37.2759 130.475 36.7841 133.541Z"
      fill="#162E3C"
    />
    <path
      d="M169.018 25.3902C159.612 31.1533 135.207 49.4237 132.931 51.3856C131.026 52.9797 129.182 54.3285 128.874 54.3285C126.6 54.3285 128.321 62.9731 126.6 77.4422C123.956 99.8816 125.37 104.97 147.808 91.6653C151.866 89.2742 157.952 86.332 161.456 85.0445C172.092 81.1207 171.354 81.8564 171.784 75.7868C171.969 72.9053 173.075 67.0195 174.12 62.6053C176.641 52.4279 178.608 41.0852 179.223 34.0346C180.145 24.0412 175.104 21.6503 169.018 25.3902ZM168.034 43.4154C166.19 52.9797 161.395 72.3528 161.149 74.4986C160.841 77.0123 151.743 79.0968 139.879 85.8409C133.731 89.3355 134.223 89.888 135.513 80.9981C136.805 72.3535 137.604 63.8314 138.157 58.007C138.157 58.007 161.333 41.76 164.038 39.7368C170.002 35.2612 169.633 35.016 168.034 43.4154Z"
      fill="#162E3C"
    />
    <path
      d="M145.903 101.169C132.133 109.874 123.526 115.638 122.788 115.638C120.575 115.638 113.567 147.396 114.305 153.957C114.551 155.979 115.104 161.62 115.104 161.988C115.78 167.077 129.858 160.332 149.899 145.189C155.493 140.958 156.231 140.59 158.567 140.714C162.317 140.897 163.362 138.874 164.715 129.126C169.202 95.9572 164.715 89.2745 145.903 101.169ZM153.649 135.011C153.587 135.072 149.715 137.096 144.981 139.61C127.767 148.622 122.788 153.404 123.341 151.074C123.649 149.848 126.231 131.701 127.153 124.466C127.399 122.689 127.829 121.769 128.813 121.278C129.551 120.91 155.985 105.46 155.985 105.46C156.046 105.522 154.817 135.011 153.649 135.011Z"
      fill="#162E3C"
    />
    <path
      d="M99.7967 129.8C97.3374 131.333 84.6735 140.407 77.3579 145.925C66.5382 154.078 65.0013 156.409 61.4357 170.203C60.2677 174.74 58.6079 180.688 57.7472 183.385C50.3702 206.744 58.4849 207.785 63.7103 204.291C67.3989 201.777 89.3456 183.508 94.1407 178.971C97.7062 175.538 98.936 174.74 100.104 174.985C103.854 175.721 105.145 172.533 107.481 156.47C109.387 143.288 111.169 122.75 99.7967 129.8ZM100.043 142.185C99.4278 146.292 96.1079 165.973 96.1079 167.873C96.1079 168.916 65.8005 189.945 66.2923 188.106C70.8415 170.203 70.1038 158.554 72.1325 158.554C73.1775 158.554 75.7595 156.838 90.821 146.109C101.456 138.507 100.534 138.875 100.043 142.185Z"
      fill="#162E3C"
    />
    <path
      d="M15.9441 101.966C18.2802 100.74 24.6122 94.9153 33.0956 88.11C54.4275 70.882 55.3497 69.6564 58.5464 53.7159C62.0505 36.0585 63.5874 14.7225 49.571 26.0647C45.5136 29.3755 22.3376 46.9713 18.9564 49.301C14.2228 52.6118 9.05884 89.8266 7.21457 97.9195C6.53834 101.046 12.3785 103.745 15.9441 101.966ZM24.9809 57.0879C47.5423 40.1049 50.6161 37.6525 50.6161 38.6948C50.6161 39.4305 46.4357 58.1302 46.0669 61.8088C45.698 65.8552 32.9726 74.6219 17.9112 87.313C15.944 88.907 18.1571 86.3326 24.9809 57.0879Z"
      fill="#162E3C"
    />
  </g>
  <defs>
    <clipPath id="clip0_2_215">
      <rect width="180" height="206" fill="white" />
    </clipPath>
  </defs>
</svg>
