<svg
      class="stayupimage"
      width="170"
      height="153"
      viewBox="0 0 170 153"
      fill="none"
      xmlns="http://www.w3.org/2000/svg"
    >
      <g clip-path="url(#clip0_2_617)">
        <path
          d="M74.9763 147.356C55.016 147.846 53.4806 127.618 69.7559 78.2729C74.9763 62.3967 70.5543 52.9568 59.0081 55.4087C51.4539 57.0025 44.5138 69.0776 38.0037 92.0031C32.4149 111.802 26.3961 117.32 16.6309 111.803C6.49721 106.041 5.63744 94.455 13.6215 69.7519C14.8498 66.0127 16.385 61.1708 17.0606 58.964C27.1945 26.6599 55.9373 3.36626 86.891 2.3242C101.938 1.83381 86.0926 -1.29215 71.2299 1.03718C43.4698 5.45064 16.2624 31.5632 6.86577 63.0091C-5.35606 104.018 -1.67114 116.768 22.4654 116.828C35.9156 116.89 37.3282 115.297 46.602 89.184C57.5955 58.2898 65.641 48.666 64.2284 68.1588C63.8599 72.8174 48.8744 111.374 48.8744 127.127C48.8744 144.966 62.8159 156.245 78.9069 151.402C85.6627 149.317 83.5131 147.111 74.9763 147.356Z"
          fill="#162E3C"
        />
        <path
          d="M151.746 28.4375C137.805 12.3772 109.308 -1.96695 99.2357 2.01742C95.0593 3.67247 95.7348 5.63426 100.525 5.63426C109.86 5.63426 127.671 15.0127 138.174 25.4333C166.732 53.8143 168.206 105.489 141.551 139.203C136.269 145.884 122.942 150.972 118.827 135.647C116.002 124.981 118.766 116.154 123.925 103.956C133.015 82.6244 132.093 73.0619 120.792 73.0619C112.194 73.0619 109.369 76.985 99.2357 103.097C91.0673 124.123 85.0485 138.59 83.3903 141.102C79.5825 146.804 86.3996 146.682 90.6987 140.92C93.3396 137.365 99.9727 123.448 101.876 117.503C106.052 104.569 109.799 89.9802 116.739 80.7855C120.301 76.0042 123.126 75.8203 122.266 82.4405C121.714 86.4862 119.564 92.4321 115.388 101.811C102.49 130.559 106.298 148.948 125.46 150.174C140.262 151.094 150.149 144.412 158.318 126.085C175.76 86.854 170.785 50.3822 151.746 28.4375Z"
          fill="#162E3C"
        />
      </g>
      <defs>
        <clipPath id="clip0_2_617">
          <rect width="170" height="153" fill="white" />
        </clipPath>
      </defs>
    </svg>