<svg
                    class="image1"
                    width="270"
                    height="250"
                    viewBox="0 0 270 250"
                    fill="none"
                    xmlns="http://www.w3.org/2000/svg"
                    >
                    <g clip-path="url(#clip0_2_109)">
                        <path
                        fill-rule="evenodd"
                        clip-rule="evenodd"
                        d="M125.18 247.359C88.8407 247.624 47.4261 258.104 21.3152 232.907C-4.94805 207.565 -1.18688 165.577 2.90593 129.368C6.46553 97.8767 20.4637 69.7826 42.3517 46.7994C64.9524 23.0681 92.4899 3.94423 125.18 0.97637C160.957 -2.27174 200.828 3.40785 224.608 30.253C247.647 56.2633 238.4 94.6729 238.906 129.368C239.424 164.939 252.265 205.752 227.538 231.405C202.666 257.212 161.08 247.098 125.18 247.359Z"
                        fill="#1F3847"
                        />
                        <path
                        d="M117.224 112.116C129.347 94.3249 117.813 77.4576 99.2926 85.8497C82.708 93.4026 70.6694 111.025 67.4704 132.509C64.9448 149.21 102.323 133.852 117.224 112.116ZM82.1187 124.285C88.0117 110.522 96.5145 99.8645 105.943 94.4097C110.994 91.4724 111.584 91.8081 110.658 97.0952C109.479 103.222 94.2414 121.516 85.402 127.139C79.3406 130.999 79.2564 130.999 82.1187 124.285Z"
                        fill="#DDF0A7"
                        />
                        <path
                        d="M244.428 69.4846C225.655 74.6038 206.966 90.9684 206.966 102.466C206.966 107.837 212.186 111.781 214.374 107.92C215.047 106.746 215.721 106.83 220.435 109.179C233.148 115.557 255.372 104.815 263.707 88.45C270.273 75.6101 259.834 65.2885 244.428 69.4846ZM253.099 80.1426C249.732 89.8775 221.614 108.089 219.257 101.962C217.994 98.7732 235.505 85.0101 247.291 79.8908C254.278 76.7858 254.193 76.8697 253.099 80.1426Z"
                        fill="#DDF0A7"
                        />
                        <path
                        d="M101.313 146.442C91.2108 150.049 74.7946 168.344 74.7946 176.065C74.7946 176.652 73.4477 179.924 71.8481 183.281C63.0928 201.493 83.2131 208.122 101.482 193.101C129.684 169.854 129.599 136.371 101.313 146.442ZM111.415 157.602C105.439 177.324 78.8354 194.023 82.2871 190.835C81.1085 191.254 79.8456 190.248 80.0982 188.989C82.2028 178.667 96.4303 161.379 107.964 155.253C112.257 152.987 112.762 153.322 111.415 157.602Z"
                        fill="#DDF0A7"
                        />
                        <path
                        d="M248.469 117.237C226.665 124.034 199.726 150.134 206.124 158.191C215.131 169.604 246.785 157.434 264.632 135.615C275.577 122.187 266.316 111.614 248.469 117.237ZM257.14 127.81C252.426 136.538 216.478 159.868 212.69 157.434C210.165 155.84 212.101 152.735 215.216 153.238C218.331 153.826 218.499 153.657 223.55 148.035C229.948 140.901 240.64 131.502 249.142 126.802C256.719 122.691 258.403 125.545 257.14 127.81Z"
                        fill="#DDF0A7"
                        />
                        <path
                        d="M233.737 52.8688C263.622 35.0774 266.485 5.53706 237.693 12.5865C218.92 17.2021 201.998 34.9096 198.294 42.2108C194.59 49.6797 196.274 54.715 202.335 53.708C203.514 53.5401 204.441 53.6241 204.441 53.9598C204.441 60.3378 222.372 59.6664 233.737 52.8688ZM221.614 35.1606C230.958 27.272 245.691 19.2164 245.691 21.9858C245.691 26.6853 225.319 45.3998 215.805 49.3441C209.828 51.7778 214.037 41.5386 221.614 35.1606Z"
                        fill="#DDF0A7"
                        />
                        <path
                        d="M134.146 119.166C134.819 118.41 138.27 112.117 138.607 111.613C139.533 114.55 141.975 116.9 144.921 117.739C154.687 120.593 167.062 113.291 180.869 96.1715C186.088 89.7096 188.866 84.5903 189.202 80.6461C191.223 57.8194 133.725 75.359 131.368 112.117C131.031 117.572 132.63 121.6 134.146 119.166ZM153.256 93.0664C165.546 80.73 180.363 72.5057 178.763 78.8838C177.416 84.4226 170.008 92.6469 162.348 99.0249C157.212 103.389 147.783 110.27 145.763 108.172C142.648 104.899 153.171 93.1503 153.256 93.0664Z"
                        fill="#DDF0A7"
                        />
                        <path
                        d="M144.501 69.9042C159.485 69.9042 185.077 45.9027 185.077 31.8878C185.077 22.9083 172.787 17.8734 161.085 21.9855C129.599 33.0635 116.888 69.9042 144.501 69.9042ZM144.584 56.6447C147.446 46.7419 155.023 37.9301 165.379 32.3075C171.524 28.9506 171.692 28.9506 170.514 32.3075C167.314 41.8745 142.058 65.5403 144.584 56.6447Z"
                        fill="#DDF0A7"
                        />
                        <path
                        d="M169.924 125.461C150.646 132.174 126.568 162.134 134.987 168.764C136.166 169.686 137.092 171.03 137.092 171.785C137.092 189.829 178.006 171.701 188.614 149.042C196.443 132.594 186.172 119.754 169.924 125.461ZM178.763 138.803C175.396 149.126 153.593 169.52 146.015 169.771C140.88 169.94 147.362 160.792 148.625 158.862C152.75 152.4 167.062 139.728 175.144 135.28C180.279 132.426 180.7 132.929 178.763 138.803Z"
                        fill="#DDF0A7"
                        />
                        </g>
                        <defs>
                            <clipPath id="clip0_2_109">
                            <rect width="270" height="250" fill="white" />
                            </clipPath>
                        </defs>
</svg>